<?xml version="1.0" encoding="UTF-8" standalone="no"?>
<!-- Created with Inkscape (http://www.inkscape.org/) -->

<svg
   version="1.1"
   id="svg1"
   width="906.16187"
   height="267.00864"
   viewBox="0 0 906.16187 267.00864"
   xmlns="http://www.w3.org/2000/svg"
   xmlns:svg="http://www.w3.org/2000/svg">
  <defs
     id="defs1">
    <clipPath
       clipPathUnits="userSpaceOnUse"
       id="clipPath92">
      <path
         d="M 0,293.35 H 792 V 0 H 0 Z"
         transform="translate(-120.94238,-149.63341)"
         id="path92" />
    </clipPath>
    <clipPath
       clipPathUnits="userSpaceOnUse"
       id="clipPath94">
      <path
         d="M 0,293.35 H 792 V 0 H 0 Z"
         transform="translate(-254.32313,-149.63341)"
         id="path94" />
    </clipPath>
    <clipPath
       clipPathUnits="userSpaceOnUse"
       id="clipPath96">
      <path
         d="M 0,293.35 H 792 V 0 H 0 Z"
         transform="translate(-158.99063,-244.70631)"
         id="path96" />
    </clipPath>
    <clipPath
       clipPathUnits="userSpaceOnUse"
       id="clipPath98">
      <path
         d="M 0,293.35 H 792 V 0 H 0 Z"
         transform="translate(-158.99063,-111.3278)"
         id="path98" />
    </clipPath>
    <clipPath
       clipPathUnits="userSpaceOnUse"
       id="clipPath100">
      <path
         d="M 0,293.35 H 792 V 0 H 0 Z"
         transform="translate(-133.21043,-119.7916)"
         id="path100" />
    </clipPath>
    <clipPath
       clipPathUnits="userSpaceOnUse"
       id="clipPath104">
      <path
         d="M 0,293.35 H 792 V 0 H 0 Z"
         transform="translate(-124.0512,-208.853)"
         id="path104" />
    </clipPath>
    <clipPath
       clipPathUnits="userSpaceOnUse"
       id="clipPath106">
      <path
         d="M 0,293.35 H 792 V 0 H 0 Z"
         transform="translate(-218.36558,-114.5402)"
         id="path106" />
    </clipPath>
    <clipPath
       clipPathUnits="userSpaceOnUse"
       id="clipPath108">
      <path
         d="M 0,293.35 H 792 V 0 H 0 Z"
         transform="translate(-378.13613,-167.6497)"
         id="path108" />
    </clipPath>
    <clipPath
       clipPathUnits="userSpaceOnUse"
       id="clipPath110">
      <path
         d="M 0,293.35 H 792 V 0 H 0 Z"
         transform="translate(-389.07518,-163.70071)"
         id="path110" />
    </clipPath>
    <clipPath
       clipPathUnits="userSpaceOnUse"
       id="clipPath112">
      <path
         d="M 0,293.35 H 792 V 0 H 0 Z"
         transform="translate(-479.50771,-163.1158)"
         id="path112" />
    </clipPath>
    <clipPath
       clipPathUnits="userSpaceOnUse"
       id="clipPath114">
      <path
         d="M 0,293.35 H 792 V 0 H 0 Z"
         transform="translate(-549.87759,-104.39701)"
         id="path114" />
    </clipPath>
    <clipPath
       clipPathUnits="userSpaceOnUse"
       id="clipPath116">
      <path
         d="M 0,293.35 H 792 V 0 H 0 Z"
         transform="translate(-623.38262,-192.0742)"
         id="path116" />
    </clipPath>
    <clipPath
       clipPathUnits="userSpaceOnUse"
       id="clipPath118">
      <path
         d="M 0,293.35 H 792 V 0 H 0 Z"
         transform="translate(-680.69732,-163.1158)"
         id="path118" />
    </clipPath>
    <clipPath
       clipPathUnits="userSpaceOnUse"
       id="clipPath120">
      <path
         d="M 0,293.35 H 792 V 0 H 0 Z"
         transform="translate(-724.34672,-175.04821)"
         id="path120" />
    </clipPath>
    <clipPath
       clipPathUnits="userSpaceOnUse"
       id="clipPath100-8">
      <path
         d="M 0,293.35 H 792 V 0 H 0 Z"
         transform="translate(-133.21043,-119.7916)"
         id="path100-9" />
    </clipPath>
  </defs>
  <g
     id="layer-MC0"
     transform="translate(-3302.9192,-62.062267)">
    <path
       id="path91"
       d="M 0,0 C -0.566,0.747 -14.039,18.276 -31.408,18.192 -48.79,18.122 -62.098,0.466 -62.656,-0.286 l -2.097,-2.824 2.123,-2.804 c 0.565,-0.746 14.034,-18.275 31.411,-18.194 17.38,0.072 30.687,17.729 31.245,18.481 l 2.097,2.822 z"
       style="fill:#ffffff;fill-opacity:1;fill-rule:nonzero;stroke:none"
       transform="matrix(1.3333333,0,0,-1.3333333,3389.2565,191.62213)"
       clip-path="url(#clipPath92)" />
    <path
       id="path93"
       d="M 0,0 C -0.566,0.747 -14.039,18.276 -31.408,18.192 -48.79,18.122 -62.098,0.466 -62.656,-0.286 l -2.097,-2.824 2.123,-2.804 c 0.565,-0.746 14.034,-18.275 31.411,-18.194 17.38,0.072 30.688,17.729 31.245,18.481 l 2.098,2.822 z"
       style="fill:#ffffff;fill-opacity:1;fill-rule:nonzero;stroke:none"
       transform="matrix(1.3333333,0,0,-1.3333333,3567.0975,191.62213)"
       clip-path="url(#clipPath94)" />
    <path
       id="path95"
       d="m 0,0 -2.824,2.097 -2.804,-2.121 c -0.747,-0.567 -18.275,-14.035 -18.195,-31.413 0.072,-17.379 17.729,-30.686 18.48,-31.245 l 2.824,-2.097 2.805,2.124 c 0.746,0.564 18.275,14.039 18.192,31.406 C 18.406,-13.865 0.751,-0.557 0,0"
       style="fill:#ffffff;fill-opacity:1;fill-rule:nonzero;stroke:none"
       transform="matrix(1.3333333,0,0,-1.3333333,3439.9875,64.858267)"
       clip-path="url(#clipPath96)" />
    <path
       id="path97"
       d="m 0,0 -2.824,2.095 -2.804,-2.124 c -0.747,-0.564 -18.275,-14.032 -18.195,-31.411 0.072,-17.379 17.729,-30.686 18.48,-31.244 l 2.824,-2.097 2.805,2.124 c 0.746,0.566 18.275,14.038 18.192,31.406 C 18.406,-13.867 0.751,-0.559 0,0"
       style="fill:#ffffff;fill-opacity:1;fill-rule:nonzero;stroke:none"
       transform="matrix(1.3333333,0,0,-1.3333333,3439.9875,242.69627)"
       clip-path="url(#clipPath98)" />
    <path
       id="path99"
       d="m 0,0 -0.514,3.48 -3.484,0.482 c -0.928,0.129 -22.85,2.995 -35.073,-9.345 -12.241,-12.343 -9.167,-34.237 -9.03,-35.161 l 0.514,-3.48 3.485,-0.482 c 0.927,-0.129 22.845,-2.999 35.077,9.344 C 3.212,-22.821 0.137,-0.927 0,0"
       style="fill:#ffffff;fill-opacity:1;fill-rule:nonzero;stroke:none"
       transform="matrix(1.3333333,0,0,-1.3333333,3405.6139,231.4112)"
       clip-path="url(#clipPath100)" />
    <path
       id="path103"
       d="m 0,0 c -12.342,12.241 -34.236,9.168 -35.162,9.031 l -3.479,-0.514 -0.483,-3.484 c -0.128,-0.928 -2.998,-22.845 9.346,-35.078 12.34,-12.236 34.235,-9.162 35.161,-9.026 l 3.48,0.514 0.481,3.486 C 9.473,-34.143 12.34,-12.222 0,0"
       style="fill:#ffffff;fill-opacity:1;fill-rule:nonzero;stroke:none"
       transform="matrix(1.3333333,0,0,-1.3333333,3393.4016,112.66267)"
       clip-path="url(#clipPath104)" />
    <path
       id="path105"
       d="M 0,0 C -12.342,12.241 -34.236,9.167 -35.162,9.03 L -38.641,8.516 -39.124,5.03 c -0.128,-0.926 -2.998,-22.844 9.346,-35.075 12.34,-12.239 34.235,-9.164 35.161,-9.027 l 3.48,0.514 0.482,3.484 C 9.473,-34.146 12.34,-12.223 0,0"
       style="fill:#ffffff;fill-opacity:1;fill-rule:nonzero;stroke:none"
       transform="matrix(1.3333333,0,0,-1.3333333,3519.1541,238.41307)"
       clip-path="url(#clipPath106)" />
    <path
       id="path107"
       d="m 0,0 h -10.164 l -2.706,15.065 c -2.34,2.29 -5.217,4.166 -8.628,5.63 -3.413,1.464 -7.484,2.194 -12.213,2.194 -11.067,0 -19.574,-4.01 -25.521,-12.029 -5.949,-8.02 -8.921,-18.197 -8.921,-30.531 v -1.681 c 0,-12.336 2.913,-22.537 8.738,-30.604 5.826,-8.07 13.906,-12.101 24.242,-12.101 4.826,0 9.213,0.754 13.162,2.265 3.949,1.512 6.996,3.364 9.141,5.559 l 2.706,15.062 H 0 v -18.937 c -3.07,-3.949 -7.678,-7.472 -13.82,-10.569 -6.143,-3.097 -13.262,-4.642 -21.353,-4.642 -13.847,0 -25.205,5.118 -34.077,15.356 -8.874,10.238 -13.31,23.107 -13.31,38.611 v 1.536 c 0,15.6 4.364,28.505 13.09,38.719 8.726,10.214 20.158,15.32 34.297,15.32 8.091,0 15.21,-1.572 21.353,-4.717 C -7.678,26.362 -3.07,22.839 0,18.94 Z"
       style="fill:#ffffff;fill-opacity:1;fill-rule:nonzero;stroke:none"
       transform="matrix(1.3333333,0,0,-1.3333333,3732.1815,167.6004)"
       clip-path="url(#clipPath108)" />
    <path
       id="path109"
       d="m 0,0 v 9.288 h 24.79 l 1.389,-11.482 c 2.242,4.047 5.009,7.215 8.301,9.507 3.29,2.292 7.056,3.438 11.297,3.438 1.121,0 2.278,-0.087 3.473,-0.257 1.195,-0.172 2.108,-0.354 2.743,-0.547 l -1.901,-13.383 -8.191,0.437 c -3.802,0 -6.995,-0.889 -9.58,-2.668 -2.584,-1.781 -4.583,-4.277 -5.996,-7.495 v -45.411 l 11.92,-2.049 v -9.213 H 0 v 9.213 l 11.92,2.049 v 56.527 z"
       style="fill:#ffffff;fill-opacity:1;fill-rule:nonzero;stroke:none"
       transform="matrix(1.3333333,0,0,-1.3333333,3746.7669,172.86573)"
       clip-path="url(#clipPath110)" />
    <path
       id="path111"
       d="m 0,0 c -4.826,0 -8.946,-2.035 -12.358,-6.106 -3.413,-4.071 -5.51,-9.177 -6.289,-15.32 l 0.146,-0.365 h 36.49 v 1.9 c 0,5.657 -1.511,10.384 -4.534,14.187 C 10.432,-1.9 5.947,0 0,0 m 2.194,-70.785 c -11.018,0 -19.781,3.668 -26.289,11.005 -6.508,7.337 -9.763,16.855 -9.763,28.556 v 3.216 c 0,11.262 3.351,20.634 10.056,28.119 C -17.1,7.594 -9.166,11.336 0,11.336 c 10.628,0 18.684,-3.218 24.169,-9.653 5.484,-6.437 8.226,-15.017 8.226,-25.742 v -8.994 h -51.334 l -0.22,-0.365 c 0.146,-7.604 2.071,-13.859 5.777,-18.758 3.704,-4.899 8.896,-7.347 15.576,-7.347 4.874,0 9.153,0.693 12.833,2.083 3.68,1.389 6.862,3.303 9.543,5.74 l 5.631,-9.361 c -2.828,-2.729 -6.569,-5.034 -11.225,-6.911 -4.656,-1.874 -10.25,-2.813 -16.782,-2.813"
       style="fill:#ffffff;fill-opacity:1;fill-rule:nonzero;stroke:none"
       transform="matrix(1.3333333,0,0,-1.3333333,3867.3436,173.6456)"
       clip-path="url(#clipPath112)" />
    <path
       id="path113"
       d="m 0,0 c 4.777,0 9.141,1.143 13.09,3.436 3.949,2.292 6.775,5.044 8.483,8.263 V 24.716 H 6.216 c -5.9,0 -10.567,-1.366 -14.004,-4.095 -3.437,-2.731 -5.156,-6.045 -5.156,-9.947 0,-3.462 1.072,-6.106 3.218,-7.932 C -7.582,0.913 -4.339,0 0,0 m 23.18,-10.532 c -0.438,2.144 -0.779,4.071 -1.022,5.778 -0.245,1.705 -0.416,3.412 -0.513,5.119 -2.779,-3.56 -6.253,-6.521 -10.42,-8.885 -4.169,-2.364 -8.618,-3.547 -13.346,-3.547 -8.24,0 -14.503,2.012 -18.794,6.032 -4.29,4.023 -6.434,9.69 -6.434,17.003 0,7.507 3.034,13.295 9.103,17.368 6.071,4.069 14.394,6.107 24.973,6.107 h 14.846 v 9.213 c 0,4.629 -1.463,8.3 -4.389,11.005 -2.924,2.705 -6.995,4.058 -12.212,4.058 -3.608,0 -6.789,-0.463 -9.543,-1.39 -2.754,-0.926 -4.985,-2.194 -6.691,-3.801 l -1.535,-8.337 h -11.115 v 15.357 c 3.607,2.874 7.97,5.179 13.089,6.91 5.119,1.729 10.676,2.597 16.672,2.597 8.97,0 16.234,-2.292 21.793,-6.874 5.558,-4.584 8.336,-11.143 8.336,-19.673 V 5.41 c 0,-1.024 0.012,-2.025 0.037,-2.999 0.024,-0.974 0.084,-1.95 0.182,-2.924 l 5.851,-0.805 v -9.214 z"
       style="fill:#ffffff;fill-opacity:1;fill-rule:nonzero;stroke:none"
       transform="matrix(1.3333333,0,0,-1.3333333,3961.1701,251.93733)"
       clip-path="url(#clipPath114)" />
    <path
       id="path115"
       d="M 0,0 V -19.086 H 14.991 V -29.763 H 0 v -48.044 c 0,-3.706 0.768,-6.313 2.304,-7.824 1.535,-1.512 3.571,-2.266 6.106,-2.266 1.267,0 2.693,0.109 4.277,0.328 1.584,0.22 2.913,0.45 3.986,0.694 l 1.975,-9.87 c -1.366,-0.879 -3.364,-1.599 -5.996,-2.157 -2.634,-0.561 -5.266,-0.842 -7.898,-0.842 -5.851,0 -10.507,1.766 -13.967,5.302 -3.462,3.533 -5.192,9.078 -5.192,16.635 v 48.044 H -26.91 v 10.677 h 12.505 V 0 Z"
       style="fill:#ffffff;fill-opacity:1;fill-rule:nonzero;stroke:none"
       transform="matrix(1.3333333,0,0,-1.3333333,4059.1768,135.0344)"
       clip-path="url(#clipPath116)" />
    <path
       id="path117"
       d="m 0,0 c -4.826,0 -8.946,-2.035 -12.358,-6.106 -3.413,-4.071 -5.51,-9.177 -6.289,-15.32 l 0.146,-0.365 h 36.49 v 1.9 c 0,5.657 -1.511,10.384 -4.534,14.187 C 10.432,-1.9 5.947,0 0,0 m 2.194,-70.785 c -11.018,0 -19.781,3.668 -26.289,11.005 -6.508,7.337 -9.763,16.855 -9.763,28.556 v 3.216 c 0,11.262 3.351,20.634 10.056,28.119 6.703,7.483 14.636,11.225 23.802,11.225 10.628,0 18.684,-3.218 24.169,-9.653 5.484,-6.437 8.226,-15.017 8.226,-25.742 v -8.994 h -51.334 l -0.22,-0.365 c 0.146,-7.604 2.071,-13.859 5.777,-18.758 3.704,-4.899 8.896,-7.347 15.576,-7.347 4.874,0 9.153,0.693 12.833,2.083 3.68,1.389 6.862,3.303 9.543,5.74 l 5.631,-9.361 c -2.828,-2.729 -6.569,-5.034 -11.225,-6.911 -4.656,-1.874 -10.25,-2.813 -16.782,-2.813"
       style="fill:#ffffff;fill-opacity:1;fill-rule:nonzero;stroke:none"
       transform="matrix(1.3333333,0,0,-1.3333333,4135.5964,173.6456)"
       clip-path="url(#clipPath118)" />
    <path
       id="path119"
       d="m 0,0 v -3.821 h 2.797 c 1.111,0 1.958,0.756 1.958,1.867 C 4.755,-0.753 3.908,0 2.797,0 Z M 1.777,-5.2 H 0 V -9.466 H -1.603 V 1.335 h 4.4 c 2.001,0 3.601,-1.288 3.601,-3.289 0,-2.399 -2.132,-3.199 -2.754,-3.199 L 6.532,-9.466 H 4.578 Z m -7.69,1.158 c 0,-4.357 3.557,-7.957 7.954,-7.957 4.4,0 7.914,3.6 7.914,7.957 0,4.444 -3.514,7.91 -7.914,7.91 -4.397,0 -7.954,-3.466 -7.954,-7.91 m -1.465,0 c 0,5.243 4.223,9.419 9.419,9.419 5.247,0 9.423,-4.176 9.423,-9.419 0,-5.2 -4.176,-9.423 -9.423,-9.423 -5.196,0 -9.419,4.223 -9.419,9.423"
       style="fill:#ffffff;fill-opacity:1;fill-rule:nonzero;stroke:none"
       transform="matrix(1.3333333,0,0,-1.3333333,4193.7956,157.73573)"
       clip-path="url(#clipPath120)" />
    <path
       id="path99-4"
       d="m 0,0 -0.514,3.48 -3.484,0.482 c -0.928,0.129 -22.85,2.995 -35.073,-9.345 -12.241,-12.343 -9.167,-34.237 -9.03,-35.161 l 0.514,-3.48 3.485,-0.482 c 0.927,-0.129 22.845,-2.999 35.077,9.344 C 3.212,-22.821 0.137,-0.927 0,0"
       style="fill:#ffffff;fill-opacity:1;fill-rule:nonzero;stroke:none"
       transform="matrix(1.3333333,0,0,-1.3333333,3531.367,105.65935)"
       clip-path="url(#clipPath100-8)" />
  </g>
</svg>
