<svg id="Layer_1" data-name="Layer 1" xmlns="http://www.w3.org/2000/svg" viewBox="0 0 800 800"><defs><style>.cls-1{fill:#f7afaa;}.cls-2{fill:#5971ac;}.cls-3{fill:#a0c46d;}.cls-4{fill:#5f3553;}.cls-5{fill:#db4f3e;}.cls-6{fill:#40a4a8;}.cls-7{fill:#ffd267;}.cls-8{fill:#837a9f;}</style></defs><title>create-wp-repo-icon</title><path class="cls-1" d="M273.41,399.62l-8,10.76c-2.13,2.87-52.87,70.19-119.14,70.47S28.66,414.32,26.5,411.48l-8.09-10.7,8-10.77c2.12-2.86,52.87-70.18,119.15-70.45s117.6,66.51,119.76,69.36Z"/><path class="cls-2" d="M782,399.62l-8,10.76c-2.12,2.87-52.87,70.19-119.14,70.47s-117.61-66.53-119.77-69.37L527,400.78,535,390c2.13-2.86,52.87-70.18,119.15-70.45s117.61,66.51,119.76,69.36Z"/><path class="cls-3" d="M480.85,145.56c.32,66.22-66.52,117.6-69.37,119.75l-10.69,8.1-10.77-8c-2.86-2.14-70.19-52.88-70.47-119.14S386.09,28.66,388.93,26.5l10.7-8.09,10.77,8C413.26,28.53,480.58,79.27,480.85,145.56Z"/><path class="cls-4" d="M480.85,654.15c.32,66.22-66.52,117.59-69.37,119.75L400.79,782,390,774c-2.86-2.13-70.19-52.86-70.47-119.13s66.54-117.62,69.38-119.78l10.7-8.09,10.77,8C413.26,537.12,480.58,587.86,480.85,654.15Z"/><path class="cls-5" d="M277.68,636.79C231,683.85,147.46,672.91,143.93,672.42l-13.29-1.84-2-13.27c-.52-3.52-12.24-87,34.43-134.07s130.2-36.12,133.74-35.63l13.28,1.83,2,13.27C312.62,506.25,324.34,589.73,277.68,636.79Z"/><path class="cls-6" d="M490.27,311l13.28,1.83c3.54.49,87.12,11.44,133.75-35.63s34.94-130.54,34.42-134.07l-2-13.27L656.47,128c-3.53-.49-87.12-11.42-133.73,35.63s-34.95,130.55-34.43,134.08ZM548.15,188.8c24.55-24.8,67.33-27,89.4-26.36,1,24.91-2.57,66.25-25.65,89.53-24.54,24.77-67.23,27-89.31,26.37C521.71,256.24,523.6,213.55,548.15,188.8Z"/><path class="cls-7" d="M312.8,296.85,311,310.14l-13.27,2c-3.53.52-87,12.24-134.07-34.42S127.5,147.46,128,143.93l1.84-13.29,13.26-2c3.54-.52,87-12.24,134.08,34.44S313.29,293.31,312.8,296.85Z"/><path class="cls-8" d="M672.43,656.48l-1.84,13.28-13.27,2c-3.53.52-87,12.25-134.07-34.42s-36.12-130.21-35.64-133.74l1.84-13.3,13.27-1.95c3.53-.53,87-12.25,134.08,34.43S672.91,652.94,672.43,656.48Z"/></svg>